<svg version="1.0" xmlns="http://www.w3.org/2000/svg" width="64" height="64" xml:space="preserve"><path fill="#ffbe00" d="M49.3 64a4 4 0 0 1-2-.5L32 55l-15.4 8.5a4 4 0 0 1-5.9-4.1l3-18.3L1.1 28a4 4 0 0 1 2.3-6.7l17.2-2.6 7.8-16.5a4 4 0 0 1 7.2 0l7.8 16.5 17.2 2.6a4 4 0 0 1 2.3 6.8L50.3 41l3 18.3a4 4 0 0 1-4 4.6zM32 46.4a4 4 0 0 1 2 .5l10 5.6-2-12.1a4 4 0 0 1 1.1-3.4l8.6-8.8L40 26.4a4 4 0 0 1-3-2.3l-5-10.7-5 10.7a4 4 0 0 1-3 2.3l-11.7 1.8 8.6 8.8a4 4 0 0 1 1 3.4l-2 12.1L30.2 47a4 4 0 0 1 1.9-.5z"/></svg>